<?xml version="1.0" encoding="UTF-8"?>
<svg width="26px" height="26px" viewBox="0 0 26 26" version="1.1" xmlns="http://www.w3.org/2000/svg" xmlns:xlink="http://www.w3.org/1999/xlink">
    <!-- Generator: Sketch 58 (84663) - https://sketch.com -->
    <title>Cart</title>
    <desc>Created with Sketch.</desc>
    <g id="Cart" stroke="none" stroke-width="1" fill="none" fill-rule="evenodd">
        <g id="Group-25-Copy">
            <path d="M2.36644883,9 L23.634202,9 C25.0944194,9 26.1693378,10.5992216 25.9778983,12.3404108 L24.8628213,22.4597533 C24.7048871,23.8972745 23.7206033,25 22.5190959,25 L3.29096111,25 C2.06758727,25 1.07361004,23.8590383 0.940432117,22.3921728 L0.0152361141,12.272325 C-0.141436871,10.5530875 0.928841035,9 2.36644883,9 Z M2.36644883,10.4812072 C1.76437941,10.4812072 1.25041209,11.2270286 1.33195254,12.1218061 L2.25717367,22.2419301 C2.32511177,22.9902219 2.78558954,23.5187928 3.29096111,23.5187928 L22.5190959,23.5187928 C23.0145322,23.5187928 23.4688555,23.0097995 23.5491745,22.2787338 L24.6642588,12.1593249 C24.7640752,11.2514699 24.2463424,10.4812072 23.634202,10.4812072 L2.36644883,10.4812072 Z" id="Stroke-1" fill="#BABABA" fill-rule="nonzero"></path>
            <polygon id="Stroke-3" fill="#BABABA" fill-rule="nonzero" points="1 14 25 14 25 13 1 13"></polygon>
            <path d="M19.5802005,10.2415209 L14.4595147,3.54453391 C13.7677038,2.64092638 13.8687833,1.27606572 14.6835416,0.510346059 C15.4984684,-0.257675052 16.7279458,-0.145946528 17.4195685,0.758486667 L22.5407633,7.45542478 C23.231887,8.36027633 23.1315488,9.72296934 22.316581,10.4899846 C21.5011365,11.2575576 20.2727632,11.1459206 19.5802005,10.2415209 Z M21.482987,9.40006884 C21.7553344,9.14375529 21.7892919,8.68261406 21.5579955,8.37978968 L16.4370439,1.68316998 C16.205905,1.38091014 15.7899888,1.34311384 15.517058,1.6003343 C15.2450393,1.85598108 15.2108332,2.31786085 15.4418174,2.6195606 L20.5624599,9.31649114 C20.7942975,9.61924184 21.2100194,9.65702049 21.482987,9.40006884 Z" id="Stroke-7" fill="#BABABA" fill-rule="nonzero"></path>
            <g id="Group-16" transform="translate(17.000000, 15.000000)">
                <path d="M1.2052,1.000125 L1.2052,5.826625" id="Fill-13" fill="#FFFFFF"></path>
                <path d="M0.538533333,1.000125 L0.538533333,5.826625 C0.538533333,6.30987416 0.837010167,6.701625 1.2052,6.701625 C1.57338983,6.701625 1.87186667,6.30987416 1.87186667,5.826625 L1.87186667,1.000125 C1.87186667,0.516875844 1.57338983,0.125125 1.2052,0.125125 C0.837010167,0.125125 0.538533333,0.516875844 0.538533333,1.000125 Z" id="Stroke-15" fill="#BABABA" fill-rule="nonzero"></path>
            </g>
            <g id="Group-16-Copy" transform="translate(7.000000, 15.000000)">
                <path d="M1.2052,1.000125 L1.2052,5.826625" id="Fill-13" fill="#FFFFFF"></path>
                <path d="M0.538533333,1.000125 L0.538533333,5.826625 C0.538533333,6.30987416 0.837010167,6.701625 1.2052,6.701625 C1.57338983,6.701625 1.87186667,6.30987416 1.87186667,5.826625 L1.87186667,1.000125 C1.87186667,0.516875844 1.57338983,0.125125 1.2052,0.125125 C0.837010167,0.125125 0.538533333,0.516875844 0.538533333,1.000125 Z" id="Stroke-15" fill="#BABABA" fill-rule="nonzero"></path>
            </g>
            <g id="Group-20" transform="translate(12.000000, 15.000000)">
                <path d="M1.09646667,1.47007778 L1.09646667,5.7603" id="Fill-17" fill="#FFFFFF"></path>
                <path d="M0.4298,1.47007778 L0.4298,5.7603 C0.4298,6.18985481 0.728276833,6.53807778 1.09646667,6.53807778 C1.4646565,6.53807778 1.76313333,6.18985481 1.76313333,5.7603 L1.76313333,1.47007778 C1.76313333,1.04052297 1.4646565,0.6923 1.09646667,0.6923 C0.728276833,0.6923 0.4298,1.04052297 0.4298,1.47007778 Z" id="Stroke-19" fill="#BABABA" fill-rule="nonzero"></path>
            </g>
            <path d="M3.67242866,10.4897605 C2.86785589,9.72541961 2.77151225,8.37280317 3.45797178,7.47615357 L8.61835542,0.749005183 C9.30546315,-0.147243364 10.5225645,-0.254513654 11.3275713,0.510239538 C12.1321441,1.27458039 12.2284877,2.62719683 11.5420282,3.52384643 L6.38164458,10.2509948 C5.69453685,11.1472434 4.47743547,11.2545137 3.67242866,10.4897605 Z M4.50068188,9.41068634 C4.76972488,9.66627609 5.18136679,9.62999567 5.41133585,9.33002902 L10.5714353,2.60325164 C10.8012242,2.30310241 10.7686043,1.84513439 10.4993181,1.58931366 C10.2302751,1.33372391 9.81863321,1.37000433 9.58866415,1.66997098 L4.42856474,8.39674836 C4.19877578,8.69689759 4.23139575,9.15486561 4.50068188,9.41068634 Z" id="Stroke-23" fill="#BABABA" fill-rule="nonzero"></path>
        </g>
    </g>
</svg>