<?xml version="1.0" encoding="UTF-8"?>
<svg width="26px" height="26px" viewBox="0 0 26 26" version="1.1" xmlns="http://www.w3.org/2000/svg" xmlns:xlink="http://www.w3.org/1999/xlink">
    <!-- Generator: Sketch 58 (84663) - https://sketch.com -->
    <title>Notifications</title>
    <desc>Created with Sketch.</desc>
    <defs>
        <polygon id="path-1" points="0 0 21 0 21 25 0 25"></polygon>
    </defs>
    <g id="Notifications" stroke="none" stroke-width="1" fill="none" fill-rule="evenodd">
        <g id="Group-3-Copy" transform="translate(2.000000, 0.000000)">
            <mask id="mask-2" fill="white">
                <use xlink:href="#path-1"></use>
            </mask>
            <g id="Clip-2"></g>
            <path d="M18.2773143,18.2021815 C18.5025824,18.4832211 18.754271,18.707218 19.00735,18.8755635 C19.2034168,19.0174745 19.3438617,19.2414714 19.3438617,19.4654683 C19.3438617,19.859202 19.0351609,20.1680672 18.6416369,20.1680672 L2.38617402,20.1680672 C1.99404052,20.1680672 1.68533969,19.859202 1.68533969,19.4654683 C1.68533969,19.2971228 1.79658323,19.0731259 1.99404052,18.9312149 C3.6223679,17.8098392 4.43583631,15.0550949 4.43583631,10.7017641 C4.43583631,6.62947298 6.9624553,5.05592966 9.06773937,4.46602482 L9.12475169,4.43819912 C9.12475169,4.43819912 9.71434247,4.24202794 10.5278109,4.24202794 C10.9491458,4.24202794 11.427493,4.29767934 11.9044497,4.43819912 L11.9322606,4.43819912 C14.0375447,5.02810396 16.5641637,6.60164728 16.5641637,10.6739384 C16.5641637,13.1462519 16.8172427,15.0843119 17.3498212,16.5159441 C17.3498212,16.5159441 17.9143822,17.8154043 18.2773143,18.2021815 M10.5,1.68484612 C11.0895908,1.68484612 11.5387366,2.13423118 11.6235598,2.69631031 C10.7530791,2.55579053 9.96603099,2.61144193 9.40564164,2.69631031 C9.46126341,2.13423118 9.91040922,1.68484612 10.5,1.68484612 M10.7808899,23.3151539 C10.1078665,23.3151539 9.49046484,22.9784629 9.0969408,22.4706439 L12.4662296,22.4706439 C12.0727056,22.9784629 11.4553039,23.3151539 10.7808899,23.3151539 M2.38617402,21.939173 L7.07508939,21.939173 C7.41299166,23.7074962 8.98430671,25 10.7808899,25 C12.5774732,25 14.1501788,23.7074962 14.4866905,21.939173 L18.613826,21.939173 C19.9334525,21.939173 21,20.8706661 21,19.5503367 C21,18.7628694 20.6078665,18.0046191 19.9334525,17.555234 C19.28824,17.1072402 18.2203019,15.646391 18.2203019,10.7295898 C18.2203019,6.01174245 15.4419944,4.01663977 13.2796981,3.17352106 C13.3075089,3.03439256 13.3075089,2.92169848 13.3075089,2.8090044 C13.3075089,1.26467806 12.0448947,0 10.5,0 C8.95649583,0 7.69249106,1.26467806 7.69249106,2.8090044 C7.69249106,2.92169848 7.69249106,3.06221826 7.72169249,3.17352106 C5.55939611,4.01663977 2.77969805,6.01174245 2.77969805,10.7295898 C2.77969805,15.646391 1.71315058,17.1072402 1.06793802,17.555234 C0.393524037,18.0046191 0,18.7628694 0,19.5503367 C0,20.8706661 1.06793802,21.939173 2.38617402,21.939173" id="Fill-1" fill="#BABABA" mask="url(#mask-2)"></path>
        </g>
    </g>
</svg>