<?xml version="1.0" encoding="UTF-8"?>
<svg width="26px" height="26px" viewBox="0 0 26 26" version="1.1" xmlns="http://www.w3.org/2000/svg" xmlns:xlink="http://www.w3.org/1999/xlink">
    <!-- Generator: Sketch 58 (84663) - https://sketch.com -->
    <title>Search</title>
    <desc>Created with Sketch.</desc>
    <g id="Search" stroke="none" stroke-width="1" fill="none" fill-rule="evenodd">
        <g id="noun_Search_1773652-Copy" transform="translate(13.500000, 12.500000) scale(-1, 1) rotate(-270.000000) translate(-13.500000, -12.500000) translate(4.000000, 3.000000)" fill="#BABABA" fill-rule="nonzero">
            <path d="M12.1550863,3.844201 C12.3674027,4.05651607 12.5648569,4.2836932 12.7495722,4.51936292 C12.6943699,4.4471758 12.6391677,4.37711183 12.5839654,4.3049247 C12.9449033,4.77626415 13.2442694,5.29006662 13.4778174,5.83571635 C13.4417236,5.75079032 13.4056298,5.66586429 13.3716592,5.58306141 C13.6115767,6.15418895 13.7729371,6.75291744 13.8557405,7.36650799 C13.8430016,7.27308936 13.8302626,7.17754758 13.8175236,7.08412895 C13.8960806,7.6934732 13.8960806,8.30918689 13.8175236,8.91853114 C13.8302626,8.82511251 13.8430016,8.72957073 13.8557405,8.6361521 C13.7729371,9.24974265 13.6115767,9.84847114 13.3716592,10.4195987 C13.407753,10.3346726 13.4438468,10.2497466 13.4778174,10.1669437 C13.2463925,10.7125935 12.9470264,11.2263959 12.5839654,11.6977354 C12.6391677,11.6255483 12.6943699,11.5554843 12.7495722,11.4832972 C12.3822648,11.9588829 11.9533858,12.3856362 11.4799202,12.7529413 C11.5521078,12.6977394 11.6221722,12.6425374 11.6943598,12.5873355 C11.2230174,12.9482711 10.7092118,13.2476354 10.1635587,13.481182 C10.2484852,13.4450884 10.3334118,13.4089948 10.4162151,13.3750244 C9.84508408,13.6149405 9.24635188,13.7762999 8.63275754,13.8591028 C8.72617674,13.8463639 8.82171912,13.833625 8.91513832,13.8208861 C8.30579031,13.8994426 7.6900728,13.8994426 7.08072478,13.8208861 C7.17414399,13.833625 7.26968636,13.8463639 7.36310557,13.8591028 C6.74951123,13.7762999 6.15077903,13.6149405 5.57964796,13.3750244 C5.66457451,13.411118 5.74950107,13.4472116 5.83230446,13.481182 C5.28665135,13.2497585 4.77284571,12.9503943 4.30150334,12.5873355 C4.37369091,12.6425374 4.44375532,12.6977394 4.51594289,12.7529413 C4.04035419,12.3856362 3.61359826,11.9567598 3.24629092,11.4832972 C3.30149318,11.5554843 3.35669544,11.6255483 3.4118977,11.6977354 C3.05095985,11.2263959 2.75159375,10.7125935 2.51804573,10.1669437 C2.55413952,10.2518698 2.5902333,10.3367958 2.62420392,10.4195987 C2.38428641,9.84847114 2.22292596,9.24974265 2.14012257,8.6361521 C2.15286155,8.72957073 2.16560054,8.82511251 2.17833952,8.91853114 C2.09978246,8.30918689 2.09978246,7.6934732 2.17833952,7.08412895 C2.16560054,7.17754758 2.15286155,7.27308936 2.14012257,7.36650799 C2.22292596,6.75291744 2.38428641,6.15418895 2.62420392,5.58306141 C2.58811014,5.66798744 2.55201635,5.75291347 2.51804573,5.83571635 C2.74947059,5.29006662 3.04883669,4.77626415 3.4118977,4.3049247 C3.35669544,4.37711183 3.30149318,4.4471758 3.24629092,4.51936292 C3.61359826,4.04377717 4.04247735,3.61702388 4.51594289,3.24971881 C4.44375532,3.30492073 4.37369091,3.36012265 4.30150334,3.41532457 C4.77284571,3.05438895 5.28665135,2.7550247 5.83230446,2.52147813 C5.7473779,2.55757169 5.66245135,2.59366525 5.57964796,2.62763566 C6.15077903,2.38771963 6.74951123,2.22636018 7.36310557,2.14355731 C7.26968636,2.15629621 7.17414399,2.16903511 7.08072478,2.18177402 C7.6900728,2.10321744 8.30579031,2.10321744 8.91513832,2.18177402 C8.82171912,2.16903511 8.72617674,2.15629621 8.63275754,2.14355731 C9.24635188,2.22636018 9.84508408,2.38771963 10.4162151,2.62763566 C10.3312886,2.5915421 10.246362,2.55544854 10.1635587,2.52147813 C10.7092118,2.75290155 11.2230174,3.0522658 11.6943598,3.41532457 C11.6221722,3.36012265 11.5521078,3.30492073 11.4799202,3.24971881 C11.7155914,3.43443292 11.9427699,3.63188594 12.1550863,3.844201 C12.3482942,4.03740772 12.6327982,4.154181 12.9066863,4.154181 C13.1678355,4.154181 13.4778174,4.03953087 13.6582863,3.844201 C13.8430016,3.64250169 13.9810072,3.37710785 13.9682682,3.09260566 C13.9555292,2.81234977 13.8599869,2.54483279 13.6582863,2.34101032 C12.5181473,1.209371 11.0191937,0.398327443 9.42894397,0.132933608 C9.00006488,0.0607464843 8.56481629,0.00979086783 8.12956771,0.00129826509 C7.73041291,-0.00719433764 7.33550444,0.0267760733 6.94059597,0.0798548404 C6.54356434,0.132933608 6.15290219,0.20299758 5.76860954,0.315524566 C5.35034627,0.438667306 4.94269881,0.602149909 4.54566718,0.784740868 C3.81317566,1.12444498 3.13800957,1.60003073 2.54564686,2.14568046 C1.94054517,2.70406909 1.41612371,3.37286155 1.01484574,4.09260963 C0.632676257,4.78051046 0.33967965,5.5363521 0.180442363,6.30917895 C0.0212050765,7.0820058 -0.044613002,7.88243361 0.0318208956,8.67012251 C0.108254793,9.46630402 0.273861571,10.2433772 0.581720325,10.9822336 C0.751573431,11.3898785 0.93416552,11.7890309 1.16771354,12.1648285 C1.40338472,12.5491188 1.67939602,12.9121776 1.97239263,13.256128 C2.50742991,13.8803343 3.1592412,14.4217377 3.85988527,14.848491 C4.5329282,15.2582591 5.28665135,15.5724854 6.05311349,15.7614458 C7.58391461,16.1393666 9.25484454,16.0756721 10.7346897,15.5172835 C11.1487067,15.3601703 11.5584773,15.1818257 11.9448931,14.9631411 C12.3334321,14.7444566 12.6901236,14.4811859 13.0404456,14.2051763 C13.6901338,13.6913739 14.2442795,13.058675 14.7007597,12.3707742 C15.5776264,11.0501744 16.0341066,9.423841 15.9980128,7.83997059 C15.961919,6.24973073 15.4544829,4.64250566 14.509675,3.35587635 C14.2464027,2.99918703 13.9682682,2.65735977 13.6561631,2.34313347 C13.4650784,2.14992676 13.1763281,2.03315347 12.9045631,2.03315347 C12.643414,2.03315347 12.3334321,2.14780361 12.1529632,2.34313347 C11.9682479,2.54483279 11.8302423,2.81022662 11.8429812,3.09472881 C11.8557202,3.3749847 11.9512626,3.64037854 12.1550863,3.844201 Z" id="Path"></path>
            <path d="M14.662564,16.0056926 C15.3986281,16.7419355 16.1346921,17.4781784 16.8707562,18.2144213 C17.0395957,18.3833017 17.2103322,18.5540797 17.3791716,18.7229602 C17.5518052,18.8956357 17.8060129,19 18.0507352,19 C18.2840751,19 18.5610477,18.8975332 18.7222988,18.7229602 C18.8873441,18.5426945 19.0106538,18.3055028 18.9992714,18.0512334 C18.987889,17.7988615 18.9025207,17.5616698 18.7222988,17.3795066 C18.2613103,16.9184061 17.7984246,16.455408 17.337436,15.9943074 C16.6013719,15.2580645 15.8653079,14.5218216 15.1292438,13.7855787 C14.9604043,13.6166983 14.7896678,13.4459203 14.6208284,13.2770398 C14.4481948,13.1043643 14.1939871,13 13.9492648,13 C13.7159249,13 13.4389523,13.1024668 13.2777012,13.2770398 C13.1126559,13.4573055 12.9893462,13.6944972 13.0007286,13.9487666 C13.010214,14.2011385 13.0955822,14.4383302 13.2777012,14.6204934 C13.7386897,15.0815939 14.2015754,15.544592 14.662564,16.0056926 Z" id="Path"></path>
        </g>
    </g>
</svg>