<?xml version="1.0" encoding="UTF-8"?>
<svg width="50px" height="50px" viewBox="0 0 50 50" version="1.1" xmlns="http://www.w3.org/2000/svg" xmlns:xlink="http://www.w3.org/1999/xlink">
    <!-- Generator: Sketch 59.1 (86144) - https://sketch.com -->
    <title>Youtube</title>
    <desc>Created with Sketch.</desc>
    <g id="Symbols" stroke="none" stroke-width="1" fill="none" fill-rule="evenodd">
        <g id="Youtube">
            <path d="M0,25 C0,11.1928806 11.1928806,0 25,0 C38.8071194,0 50,11.1928806 50,25 C50,38.8071194 38.8071194,50 25,50 C11.1928806,50 0,38.8071194 0,25 Z" id="back" fill="#FF0000"></path>
            <path d="M37.7760606,18.8262702 C37.4693939,17.6481384 36.5657576,16.7204099 35.4183333,16.4055511 C33.3389394,15.8333333 25,15.8333333 25,15.8333333 C25,15.8333333 16.6610606,15.8333333 14.5815152,16.4055511 C13.4340909,16.7204099 12.5304545,17.6481384 12.2237879,18.8262702 C11.6666667,20.9614987 11.6666667,25.4166667 11.6666667,25.4166667 C11.6666667,25.4166667 11.6666667,29.8716801 12.2237879,32.0070632 C12.5304545,33.1851949 13.4340909,34.1129234 14.5815152,34.4279368 C16.6610606,35 25,35 25,35 C25,35 33.3389394,35 35.4183333,34.4279368 C36.5657576,34.1129234 37.4693939,33.1851949 37.7760606,32.0070632 C38.3333333,29.8716801 38.3333333,25.4166667 38.3333333,25.4166667 C38.3333333,25.4166667 38.3333333,20.9614987 37.7760606,18.8262702" id="Fill-1" fill="#FFFFFF"></path>
            <polygon id="Fill-2" fill="#FF0000" points="22.5 30 22.5 21.6666667 29.1666667 25.8334926"></polygon>
        </g>
    </g>
</svg>