<?xml version="1.0" encoding="UTF-8"?>
<svg width="50px" height="50px" viewBox="0 0 50 50" version="1.1" xmlns="http://www.w3.org/2000/svg" xmlns:xlink="http://www.w3.org/1999/xlink">
    <!-- Generator: Sketch 59.1 (86144) - https://sketch.com -->
    <title>Facebook</title>
    <desc>Created with Sketch.</desc>
    <g id="Symbols" stroke="none" stroke-width="1" fill="none" fill-rule="evenodd">
        <g id="Facebook">
            <path d="M0,25 C0,11.1928806 11.1928806,0 25,0 C38.8071194,0 50,11.1928806 50,25 C50,38.8071194 38.8071194,50 25,50 C11.1928806,50 0,38.8071194 0,25 Z" id="back" fill="#3B5998"></path>
            <path d="M27.6057866,39.6994549 L27.6057866,26.098135 L31.3603457,26.098135 L31.8579059,21.4110449 L27.6057866,21.4110449 L27.6121655,19.0651111 C27.6121655,17.8426458 27.7283161,17.187621 29.4841293,17.187621 L31.8313268,17.187621 L31.8313268,12.5 L28.0762361,12.5 C23.5657682,12.5 21.9782005,14.773743 21.9782005,18.5974637 L21.9782005,21.4115757 L19.1666667,21.4115757 L19.1666667,26.0986658 L21.9782005,26.0986658 L21.9782005,39.6994549 L27.6057866,39.6994549 Z" id="Shape" fill="#FFFFFF"></path>
        </g>
    </g>
</svg>